<?xml version="1.0" encoding="UTF-8"?>
<svg version="1.1" viewBox="0 0 2048 1365" width="1280" height="1280" xmlns="http://www.w3.org/2000/svg">
<path transform="translate(1098,334)" d="m0 0 4 1v10l-5 13-8 12-9 11-8 7-11 9-15 10-16 9-16 8-24 10-23 8-25 8-64 16-24 7-25 9-16 8-13 9-6 8v6l4 5 7 3 5 1h12l18-3 38-11 31-6 29-3h51l22 2 30 5 32 8 19 6 5 1h12l14-5 5-1h10l11 2 7-1 25-13 6-2h14l11 3 8 1 15-3h7l8 4 7 9 8-1 72-17 20-4 7-1h14l6 4 6 7 1 8-5 5-5 2-3 10-2 2-4-1-6-4h-4l-5 12-2 1-10-6h-4l-2 9-3 4-5-2-4-3h-5l-4 10-4 2-8-5-4-1-3 10-2 3-6-1-6-4h-2l-5 12-4 1-7-5-5 1-4 11-3 1-8-5h-5l-8 3h-3l3 6 11 8 16 8 15 3 9-2 5-1 6 9 4-1 4-2 5 1 4 7 3 1 5-3h5l3 6v2l8-1 5-2 3 3 3 5 3 1 6-3 4 1 4 6v2l6-1 6-3 7 6 8 5 3 4-1 5-6 8-12 6-18 4-20 2-19 1h-61l-30-2-43-5-10-1-14 6-23 7-25 6-30 5-23 2h-45l-32-3-16-2-3-1 3 6 24 7 14 6 11 8 6 8 2 10-3 7-3 3-5-1-6-4h-4l-2 4-2 8-4 4h-6l-9-7-5 1-4 8-4 7-5-1-8-7-3-1-5 5-8 9-7-1-5-8-7-19-6-8-10-7-6-7-3-9 1-11 5-12 7-10 10-8 11-5 19-6 3-3-1-3-18 3-14 5-14 9-9 8-9 12-6 10-9 6-8 2h-26l-26-4-19-4-7-12-5-4-8-2-12-2 3-18v-21l-5-12-5-5-8-5-16-3h-7l-4 2 3 3 13 1 10 5 5 5 5 10 1 10-3 16-7 21h16l9 2 6 4 4 7 1 4v13l-2 8-6 10-5-1-5-3-6-1-3 3-3 10-4 5-9-3-9-4h-5l-3 11-3 2-8-6-8-9-8-13-4-10v-8l12-36 5-17-7 3-9 17-3 3-8 1-5-10-6-20-4-20-1-10v-25l2-17 5-23 8-23 13-27 12-19 11-13 6-5 5 1 4 2 12-16 9-10 5-2 5 4 4-1 11-13 9-8h5l10 5 8-7 9-8 6-1 8 6 9-6 7-6 6-3 4 1 5 7 3 1 8-4 14-11 4 1 5 7 3 2 7-1 11-9 7-5 4 1 7 9h5l9-7 10-8 4 1 5 4 6-1 12-7 4-3 7 1 5 3h6l9-9 5-3 6 1 7 3 5-1 7-7 3-2 6 1 3 2h5l6-5 5-6 11 1 6-4 6-9zm-266 90-14 5v3l11 6 5 2 2-5v-10zm-26 9-15 5v3l12 7 4 1 3-7-1-8zm-30 10-13 5-1 3 13 7h4l2-5-1-9zm18 19-13 4v3l13 7 4 1 2-5v-9l-1-1zm-30 3-14 4-3 3 15 9 3-1 1-3v-11zm-30 10-14 5-1 3 16 8 3-6v-8zm46 10-13 4 2 4 15 7 2-5v-10zm-31 9-13 5 4 4 13 6 3-7-1-8zm-31 10-14 5-1 2 15 8h3l2-5v-9zm249 1-10 4v3l14 8 3-1 2-5v-8l-1-1zm-31 1-14 5 1 3 13 7 4-1 1-4v-9zm69 1-14 5 1 3 13 7h3l2-5v-9zm236 2-4 5-2 6 3 1 12-3 1-2-6-7zm-338 1-16 5v3l14 8h3l2-6v-7zm-126 3-13 5v2l14 8 4-1 1-3v-10l-1-1zm259 0-12 5 1 3 13 7 4-1 1-4v-9l-1-1zm164 1-6 3-3 4v7l1 1 13-1 12-3-2-4-8-6zm-334 6-15 5v2l14 8h4l2-7-1-8zm-120 1-12 4v4l15 7 3-6v-6l-2-3zm87 7-16 5 1 3 14 8h2l2-7v-8zm-120 5-13 5v2l16 8h2l2-6v-7l-1-2zm252 0-14 5v3l12 7 4 1 3-7v-6l-3-3zm-172 2-12 4v3l16 8 3-9-1-6zm138 0-15 5v2l14 8h4l2-7-1-7zm68 0-13 4v4l13 7h3l2-6v-7l-2-2zm-103 4-15 5v3l15 8h2l2-7v-8zm136 1-14 5 2 4 11 6h4l2-5v-7l-2-3zm-272 5-14 5v3l14 8h2l2-5v-9zm303 1-12 5v3l14 7h2l2-7v-6l-2-2zm-203 4-14 5v3l16 8 3-6v-7l-2-3zm-132 6-14 5-1 2 16 9 3-3 1-3v-8l-1-2zm95 2-13 5 3 3 14 7 3-6v-9zm-35 3-12 4-1 3 15 8h2l2-6v-8l-1-1zm138 1-13 4v4l13 7 4-1 1-4v-8l-1-2zm31 1-12 5v2l15 8h2l2-6v-7l-1-2zm34 0-11 4 1 4 10 5 5 2 3-9-2-6zm33 4-12 5 1 3 15 7 2-1 1-4v-9l-1-1zm-136 2-11 4v3l16 8 2-5v-10zm-139 7-12 5 4 4 12 6h2l2-8-1-7zm104 4-13 5 1 3 13 7 4-1 1-4v-9l-1-1zm-35 5-15 5v2l13 7 4 2 3-8v-6l-1-2zm-39 4-11 4v3l14 8h2l2-5v-9l-1-1z" fill="#024329"/>
<path transform="translate(1010,797)" d="m0 0h21l14 2 17 5 16 8 11 7 12 11 7 7 12 18 8 18 5 21 1 8v15l-2 17-4 15-6 15-8 14-9 11-11 11-14 10-19 9-19 5-19 2-19-1-17-4-16-6-15-9-14-12-11-13-9-15-6-15-5-21-1-7v-23l3-19 6-18 10-19 9-11 6-7 11-9 13-8 14-6 14-4zm6 51-16 4-10 6-10 9-7 9-7 16-2 12v13l3 16 5 12 8 11 5 5 7 6 13 6 7 2h21l12-4 10-6 10-9 8-13 5-15 1-5v-24l-4-15-7-13-9-10-12-8-12-4-6-1z"/>
<path transform="translate(1589,799)" d="m0 0h155l1 6-1 32-3 7-5 4-5 2-7 1h-78v32h81v52l-81 1v36h28l70 1 1 1v27l-2 9-4 6-5 4-8 3-136 1-1-1-1-31v-43z" fill="#000100"/>
<path transform="translate(551,799)" d="m0 0h64l8 3 6 7 6 16 23 71 17 54 18 57 4 12v4h-53l-3-5-14-42v-3h-84l-3 11-9 25-8 11-6 3h-48l3-9 17-47 14-38 17-46 11-30 19-52zm33 54-3 8-15 42-8 21v3h55l-1-5-21-56-5-13z"/>
<path transform="translate(1238,799)" d="m0 0h39l20 3 16 5 16 8 5 3-1 8-8 19-4 6-5 3-10 1-23-7-11-2h-26l-13 4-4 3h-2l-2 4-1 6 3 6 7 6 19 8 41 13 15 7 10 6 11 9 9 12 5 13 2 14-2 15-5 12-7 11-5 6-10 8-15 8-16 5-14 3-12 1h-16l-18-2-17-4-19-7-14-8-16-12-1-3 9-16 7-9 8-7h12l16 8 16 6 14 3 11 1h13l12-3 6-4 3-5-1-7-4-7-8-6-15-6-39-12-15-6-13-7-10-8-8-8-6-11-3-10v-19l4-12 6-11 8-10 9-8 14-8 9-4 17-4z"/>
<path transform="translate(814,797)" d="m0 0h28l20 3 25 7 7 3v7l-4 16-5 12-5 5-6 2-10-1-15-3-16-1-18 2-12 4-12 7-10 10-8 15-4 15-1 8v10l3 16 6 14 8 11 8 7 16 8 14 3h24l20-4h9l8 5 5 10 6 24-4 4-20 6-25 5-16 2-17-1-22-5-17-6-15-8-16-12-9-9-10-14-9-17-6-20-2-15v-18l2-15 4-15 7-17 7-11 8-10 12-12 13-9 15-8 21-7z"/>
<path transform="translate(1379,799)" d="m0 0h176v36l-2 7-7 6-5 2-8 1h-46v171l-1 1-54 1-1-1v-172h-68l-1-1v-34l2-8 7-6z"/>
<path transform="translate(303,799)" d="m0 0h39l8 2 6 4 4 7 1 4v157l13-1h26l33 1 8 5 3 6v39h-141z"/>
<path transform="translate(1168,560)" d="m0 0h29l17 5 13 5 4 1 2 7 4 5 1 5 4 8 3 3v2l5 2 13 5 40 12 21 6 19 5 12 5 2 2-1 5-2 1h-10l-5-1-16-1-8-4-13-1-5-4h-17l-4-5-5-1-5 2-7-1-4-5-2-1-9 1-10 1-11-4-11-7-12-11-9-9-8-7-11-7-9-1-24 12-4 1h-11l-7-2-6-4-4-5v-7l1-2h6l8 6 4 1 9-2 12-7 9-4z"/>
</svg>
