<?xml version="1.0" encoding="UTF-8"?>
<svg version="1.1" viewBox="0 0 2048 1728" width="1280" height="1280" xmlns="http://www.w3.org/2000/svg">
<path transform="translate(1018,544)" d="m0 0h10l6 4 5 6 1 3v9l-6 9-6 3h-2v12l-2 4 3 4 3 19 6 60 5 45 2 28 2-1 6-29 8-32 11-48 7-29 3-16-9-8-2-4v-10l6-9 9-4 8 1 8 6 4 9-1 8-6 8-7 3-3 1-2 18-4 76-3 55-1 10 2-1 5-12 18-38 15-32 11-24 4-9-1-3-5-4-3-8 2-10 6-7 5-2h9l8 4 4 5 1 3v10l-4 6-6 5-3 1h-8l-1 7-8 25-9 31-25 85-6 20-6 10-11 9-15 7-17 4-8 1h-18l-17-3-14-5-10-6-8-7-5-9-5-14-17-57-14-48-13-44-1-6h-9l-6-3-5-6-2-5 1-9 4-6 5-4 3-1h9l8 4 4 6 1 3v8l-3 6-5 5 2 6 13 29 19 40 15 32 5 11h1l-2-23-7-132-1-4-8-3-5-4-3-6v-10l5-8 10-5 8 1 6 4 5 8 1 6-3 8-5 6-4 2 5 25 12 50 7 31 12 48 1-1 2-29 8-72 5-53 1-7v-8l-8-5-4-5-1-3v-10l4-6 6-5zm-7 247-21 3-13 5-6 4-3 3 1 5 5 5 9 4 18 4 7 1h31l21-4 10-4 6-5 1-6-5-5-10-5-18-4-12-1z" fill="#6D7B44"/>
<path transform="translate(535,914)" d="m0 0h132l12 3 9 5 6 5 7 11 4 13v9l-3 12-4 8-9 10-8 5-9 2v2l9 3 9 7 7 9 7 16 10 29 1 2 18 1v12l-52 1-2-2-8-32-7-19-6-11-8-8-12-5-11-2-30-1v67h23l1 1v11h-85l-1-2v-8l2-2h21l1-140h-23l-1-2zm63 12-1 29v31l1 1 44-1 10-3 9-6 6-10 1-4v-15l-5-10-7-7-9-4-5-1z" fill="#0C5B39"/>
<path transform="translate(822,908)" d="m0 0h22l14 3 15 6 13 8 10 9 7 7 10 16 5 12 3 11 1 7v16l-3 17-5 13-7 12-8 10-9 9-15 10-14 6-12 3-7 1h-21l-15-3-15-6-11-7-11-9-8-9-9-14-5-12-4-16v-25l4-16 8-16 8-11 9-10 10-8 15-8 17-5zm4 17-13 4-9 6-5 4-7 10-7 15-4 14-1 7v22l3 15 5 13 7 13 7 8 10 7 9 3 15 1 14-3 11-7 7-7 8-13 5-13 3-15 1-15-2-18-5-16-8-15-9-10-10-6-13-4z" fill="#0D5B39"/>
<path transform="translate(1126,914)" d="m0 0h162l1 1v55l-4 1-8-1-1-1v-14l-2-11-5-8-7-6-4-2-10-1h-60l-1 58 26-1 8-4 4-6 2-16h11l1 1v68h-10l-2-1-1-14-4-8-5-4-5-2-25-1v69l69-1 10-5 6-6 3-8 1-25 1-1h12v58l-1 1h-162l-1-1v-11l1-1h22v-139l-23-1v-11z" fill="#0E5C39"/>
<path transform="translate(1320,914)" d="m0 0h82l1 1v10l-1 1-15 1-4 4 6 10 11 13 11 14 2 4 4-2 9-11 11-13 9-12 1-5-5-2-15-1v-12h49l18 1v10l-1 1-16 1-7 4-10 10-9 11-11 13-9 11-6 7 1 4 11 13 11 14 13 16 11 14 12 14 7 6 8 2 10 1 1 1v10l-2 1h-87l-1-1v-10l1-2h16l3-1 1-4-7-11-12-14-10-13-7-9-3-1-14 17-12 14-11 14-1 6 6 2 16 1 1 2v9l-1 1h-70l-1-1v-10l1-1 16-1 8-4 6-5 9-11 11-13 9-11 12-14 5-6-1-5-14-17-11-14-13-16-11-14-8-7-14-3-1-1v-10z" fill="#0E5C39"/>
<path transform="translate(944,914)" d="m0 0h86l1 4-1 8h-23v140l59-1 10-5 7-8 2-6 1-31 5-1 8 1 1 62-1 1-154 1-1-1v-12h23v-139l-23-1z" fill="#0E5C39"/>
</svg>
