<?xml version="1.0" encoding="UTF-8"?>
<svg version="1.1" viewBox="0 0 2048 1433" width="1280" height="1280" xmlns="http://www.w3.org/2000/svg">
<path transform="translate(1180,67)" d="m0 0 4 1 10 15 14 26 10 17 15 26 14 24 13 23 14 24 30 52 14 24 15 26 14 25 15 26 14 25 13 22 15 26 11 19 13 23 28 48 17 29 16 28 9 15 16 28 14 24 16 28 13 22 28 48 15 26 40 70 2 6-1 1-40 1h-262l-48-1-5-4-10-16-30-52-11-19-52-91-13-23-16-28-11-19-14-24-14-25-14-24-15-26-56-98-15-26-13-23-15-26-14-24-13-23-24-42-12-22-3-6v-4l13-8 25-14 20-12 61-36 26-15 25-15 26-15 17-10 40-24z"/>
<path transform="translate(876,350)" d="m0 0 4 1 9 15 15 26 14 25 13 23 14 24 9 16 14 24 28 49 13 23 14 25 13 22 28 49 15 26 14 24 14 25 9 15 14 25 28 49 11 19 3 8-3 1-274 1-1 67-1 8-2 1-47 1-18-1-5-5-2-5-1-19v-43l-4-11-14-24-9-17-10-17-15-26-12-21-13-23-16-28-9-16-14-25-15-26-16-28-15-26-14-25-13-23-10-18-5-10v-5h2l1-3 11-7 26-15 23-13 27-15 24-14 27-15 23-13 18-10 21-12 25-14 21-12z"/>
<path transform="translate(710,869)" d="m0 0h26l42 1 3 1 1 2v404l-3 3h-71l-1-1v-17l-16 8-25 10-20 5-26 3h-14l-20-2-20-5-16-6-21-11-14-10-16-15-9-10-10-15-8-15-10-26-4-18-2-13v-28l5-26 8-22 8-16 10-16 12-14 9-9 11-9 15-10 19-9 15-5 18-4 8-1h40l25 5 18 6 19 9 9 5 1-128zm-106 170-16 4-17 8-12 9-11 11-6 8-8 14-5 16-2 13v14l2 15 6 16 8 15 9 10 7 7 14 9 17 7 12 3 8 1h14l19-4 12-5 14-8 12-11 7-7 9-14 5-11 4-15v-28l-5-19-8-16-11-14-13-11-15-9-17-6-10-2z"/>
<path transform="translate(1178,870)" d="m0 0h72l1 1 1 7v400l-2 2h-72l-1-1v-17l-18 10-19 8-18 5-29 3h-12l-27-3-21-6-18-8-16-9-12-9-10-8-11-11-12-16-8-13-8-17-6-19-4-19-1-7v-27l4-24 5-16 5-12 7-14 8-12 10-13 14-14 18-13 16-9 19-8 23-6 10-2h44l20 4 21 7 16 9 7 5 3 1v-128zm-102 169-16 4-12 5-11 7-10 8-10 10-10 16-5 11-4 13-1 7v18l3 16 5 13 10 16 7 8 11 9 10 7 12 6 18 5 5 1h19l17-4 15-6 14-9 10-9 8-10 8-13 4-11 3-12v-33l-6-19-7-13-9-12-9-9-14-9-10-5-17-5-5-1z"/>
<path transform="translate(239,973)" d="m0 0h42l19 3 20 6 23 11 6 4 2-9 2-12h72l1 1 1 46v257l-2 1-71-1-2-5-1-12-19 10-22 8-16 4-28 3h-16l-18-2-17-4-16-6-16-8-13-8-12-9-21-21-10-14-9-16-8-19-5-17-3-16v-39l5-23 7-19 11-21 7-10 12-14 11-11 11-9 14-9 21-10 15-5 16-4zm13 66-19 5-16 8-12 9-13 13-10 16-6 14-4 21v10l4 19 5 12 6 11 7 9 5 6 11 9 11 7 10 5 19 5 7 1h13l20-4 16-7 12-8 13-12 9-12 7-15 4-16 1-8v-15l-3-18-6-15-7-12-9-11-9-8-10-7-12-6-16-5-5-1z"/>
<path transform="translate(1416,973)" d="m0 0h44l25 5 15 5 19 9 9 6 3 1-1-3 2-18 3-2h65l2 1v302l-2 1h-67l-2-3v-15l-16 8-18 8-21 6-20 3-9 1h-20l-22-3-21-6-18-8-11-6-13-9-13-11-8-8-13-17-8-13-10-24-5-17-3-16-1-9v-26l2-16 6-22 6-15 10-19 12-16 9-10h2l2-4 10-9 13-9 19-10 13-5 25-6zm15 66-17 4-12 5-12 7-11 9-7 7-10 15-6 12-4 18v28l4 16 8 16 8 11 4 5 11 9 11 7 13 6 15 4 8 1h14l18-4 11-4 14-8 14-11 11-14 8-14 5-15 2-17-1-15-3-14-5-12-6-11-12-15-11-9-13-8-12-5-17-4z"/>
<path transform="translate(561,623)" d="m0 0 3 1 29 49 16 28 14 24 16 27 14 24 14 25 13 22 17 29 6 12-262 1h-83l-10-1-7-10-15-27-13-24-10-19-3-8 10-7 22-13 24-14 19-11 17-10 21-12 22-13 14-8 22-13 26-15 35-20 15-9z"/>
<path transform="translate(1760,971)" d="m0 0h15l25 2 25 6 13 5 15 8 13 10 12 12 9 14 7 15 3 10v14l-3 2-9 1h-60l-1-1-3-15-5-9-4-5-10-6-13-4-19-1-19 1-14 4-8 4-6 7-3 8v10l4 8 10 7 14 5 22 5 38 6 32 7 19 7 17 10 10 8 8 8 9 14 5 14 3 15v15l-5 25-5 13-8 13-11 12-10 8-14 8-25 9-22 5-22 2h-33l-19-2-24-6-19-8-11-6-16-12-7-7-8-11-6-10-7-18-3-13v-5l4-6h71l4 9 4 11 6 10 5 5 10 7 13 5 8 2 11 1h13l11-2 13-5 10-7 3-1 2-4 6-10v-14l-3-6-7-6-10-5-15-4-36-6-31-6-24-6-16-6-11-6-11-9-11-14-7-15-5-19v-26l4-16 6-14 9-13 9-10 12-10 12-7 15-6 23-6 16-2z"/>
<path transform="translate(842,970)" d="m0 0h42l7 1 3 5v298l-3 3-13 1h-37l-21-1-1-2-1-264 1-34 3-5 3-1z"/>
<path transform="translate(1851,870)" d="m0 0h21l10 4 8 6 7 11 3 9v14l-3 10-7 10-9 7-12 4h-15l-11-4-8-6-6-7-5-12-1-12 2-9 6-11 6-7 8-5zm5 5-11 4-8 7-6 10-2 8v8l3 10 6 8 7 6 10 4h15l8-3 8-6 5-6 3-7 1-5v-12l-3-9-7-9-9-6-6-2z"/>
<path transform="translate(1847,887)" d="m0 0h14l10 2 5 4 1 2v7l-6 7-2 1 2 5 7 11v2l-3 1-5-4-6-10-4-3-9-2v18l-4 1-1-1-1-31 1-9zm5 5-2 4v7l3 3h12l5-3 1-5-2-4-5-2z"/>
</svg>
