<?xml version="1.0" encoding="UTF-8"?>
<svg version="1.1" viewBox="0 0 900 900" width="1280" height="1280" xmlns="http://www.w3.org/2000/svg">
<path transform="translate(514,272)" d="m0 0h121l22 1 12 3 9 4 8 6 7 9 4 13v15l-3 15-6 12-7 9-8 9-14 11-15 8-9 2v2l6 2 14 9 6 8 4 10v17l-3 15-4 10-7 10-9 10-8 7-14 9-15 7-13 4-10 2-16 1h-170l-1-4 1-1 49-2-23-3-20-1-7-1v-12l49-1 10-1 2-1-60-3-2-3v-8l50-2 16-1 8-1v-2l-44-1-29-1-2-7 1-4 58-1 23-1 2-1-31-3-53-3v-8l1-1 83-3h12v-2h-11l-112-6-54-3-1-2 3-1 103-2 80-3 2-2-70-3-30-2-34-1-22-1-25-2v-1l11-1 148-4 19-1 13-1v-2h-15l-54-3-66-3-30-1-12-1-3-2 16-1 55-1 78-3 44-1v-2h-18l-71-4-62-3-28-2-2-2 13-1 32-1 72-1 64-2 6-1-22-2-36-2-1-2 6-9 1-1 64-2v-2h-15l-45-2 1-5 5-7 2-1 53-2 12-1-49-2-14-1 2-5 4-6 1-1 54-1 10-1-46-3-15-1 2-5 4-6 1-1 52-2 8-1-33-1-23-2 1-5zm66 49-4 5-12 22-9 16v3h39l9-2 11-7 7-8 3-6v-9l-3-5-6-5-8-3-12-1zm-48 83-10 17-6 11-13 23v2l26 1h30l10-3 11-6 9-10 5-12v-10l-5-8-8-4-3-1z" fill="#171717"/>
<path transform="translate(333,528)" d="m0 0h15l2 1v13l-1 17 15-7 4-1h7l13 4 6 4 8 9 4 9 1 5v15l-4 10-6 9-7 6-8 3-4 1h-16l-14-7v6l-1 1h-14l-1-2v-95zm30 39-9 5-6 9-1 4v9l4 9 8 7 5 2h11l8-4 7-8 2-6v-10l-4-8-7-7-5-2z" fill="#181818"/>
<path transform="translate(208,553)" d="m0 0h14l3 4 11 35 2 2 10-33 3-8h13l2 1 8 32 3 9 2-3 12-37 2-2h13l1 2-7 21-14 44-3 6-5 1-5-2-3-5-6-18-7-20-7 23-6 18-3 4-7-1-3-4-7-19-12-36-4-11z" fill="#171717"/>
<path transform="translate(792,551)" d="m0 0h10l11 3 9 6 7 8 4 8 2 8v13l-42 1-15-1 6 10 8 4h11l6-4 5-4h18l-1 5-7 9-7 6-10 4-12 1-11-2-8-4-6-5-7-11-3-7-1-11 2-10 6-12 8-8 12-6zm0 16-9 6-5 7v4h40l-1-5-6-8-7-4z" fill="#161616"/>
<path transform="translate(164,552)" d="m0 0h17l9 3 9 7 6 8 4 11 1 7v8l-2 1-40 1-16-1 7 10 6 4 8 1 9-3 5-5 4-1h15l1 2-7 11-7 6-12 5h-19l-10-4-10-9-6-12-2-9 1-11 4-11 6-8 8-7zm3 15-7 4-7 8-1 5h41l-2-7-5-6-7-4z" fill="#161616"/>
<path transform="translate(559,551)" d="m0 0 12 1 6 3 3 3h3l3-4h13l2 2v34l-1 36h-14l-2-6-5 2-9 4h-16l-11-4-10-9-6-12-1-4v-18l4-10 9-10 10-6zm-1 16-10 5-6 9-1 3v12l3 6 4 5 9 5h12l10-6 6-8 1-3v-11l-4-8-8-7-5-2z" fill="#181818"/>
<path transform="translate(441,552)" d="m0 0h16l10 5h4l3-3 14 1 1 6v64l-1 1h-14l-1-7-15 7h-17l-10-4-8-7-4-5-4-8-1-4v-19l7-14 7-7 9-5zm4 15-8 4-6 8-3 8 1 9 5 8 7 6 10 3 9-2 8-6 4-5 2-7v-7l-3-8-6-7-8-4z" fill="#181818"/>
<path transform="translate(93,552)" d="m0 0h14l8 3 7 7 4 9 1 6v49h-16l-1-1-1-44-4-10-4-3-7-1-6 3-4 8-1 4-1 43-1 1h-15l-1-2v-71h14l2 2v3z" fill="#191919"/>
<path transform="translate(644,551)" d="m0 0 12 1 8 4 6 7 4 10 1 17v35l-1 1h-16l-1-1v-42l-4-11-5-4h-9l-5 4-3 8-1 8-1 37-1 1h-15l-1-9v-23l1-41h14l1 5 5-2 7-4z" fill="#171717"/>
<path transform="translate(716,551)" d="m0 0h8l12 3 10 7 7 8 3 6v3l-19-1-5-5-7-4h-11l-9 5-5 10v13l4 8 5 5 4 2 8 1 10-4 6-6h18l1 3-8 11-7 6-8 4-3 1h-20l-11-4-9-8-8-14-1-4v-16l4-10 6-8 7-6 12-5z" fill="#171717"/>
<path transform="translate(502,528)" d="m0 0 16 1 1 2-1 95h-17v-97z" fill="#131313"/>
<path transform="translate(451,341)" d="m0 0h10v10l-28-1-54-2-28-2 2-2 11-1 55-1z" fill="#2C2C2C"/>
<path transform="translate(421,323)" d="m0 0h39l1 7-1 1h-20l-56-3-16-1-1-2 4-1z" fill="#303030"/>
<path transform="translate(429,305)" d="m0 0h30l1 1v6h-22l-59-3-11-1 2-2z" fill="#4B4B4B"/>
<path transform="translate(308,473)" d="m0 0h54l-2 6-1 1-38-1-42-2-1-2 5-1z" fill="#383838"/>
<path transform="translate(333,491)" d="m0 0h16l2 1-2 5-2 2-60-3-19-1 1-2 17-1z" fill="#353535"/>
<path transform="translate(373,435)" d="m0 0h10l-2 6-1 1h-17l-56-3-5-1v-2z" fill="#313131"/>
<path transform="translate(363,454)" d="m0 0h9l-1 5-2 2-37-1-48-3v-1l8-1z" fill="#252525"/>
<path transform="translate(426,287)" d="m0 0h33l1 6h-18l-48-2-15-1v-2z" fill="#393939"/>
<path transform="translate(330,509)" d="m0 0h10v3l-8 1-54-1-11-1v-1z" fill="#414141"/>
<path transform="translate(389,271)" d="m0 0h30l40 1v3h-13l-47-2-10-1z" fill="#2C2C2C"/>
<path transform="translate(314,417)" d="m0 0h42v1l-24 1 10 1v1h-13l-17-1-1-2z" fill="#FEFEFE"/>
<path transform="translate(354,361)" d="m0 0h19v1l-11 1 2 2-21-1-2-2z" fill="#FEFEFE"/>
<path transform="translate(389,271)" d="m0 0h30l5 1v2l-25-1-10-1z" fill="#777"/>
<path transform="translate(360,326)" d="m0 0" fill="#FEFEFE"/>
</svg>
