<?xml version="1.0" encoding="UTF-8"?>
<svg version="1.1" viewBox="0 0 900 900" width="1280" height="1280" xmlns="http://www.w3.org/2000/svg">
<path transform="translate(728,373)" d="m0 0h78l18 3 12 4 9 6 7 8 5 12 3 13 1 22v18l-1 27-4 13-5 9-9 9-8 4-21 5-8 1-40 1-37-1-21-4-10-4-8-6-7-9-4-10-2-9-1-12v-38l1-17 4-17 7-11 7-7 10-5 18-4zm17 36-12 3-8 7-3 7-1 15v28l3 11 4 5 10 5 3 1h52l10-3 8-7 3-12v-40l-3-9-6-7-9-3-6-1z" fill="#010101"/>
<path transform="translate(468,372)" d="m0 0h56l16 1 16 4 8 4 5 5 4 5 3 9 1 6v12l-2 2h-42l-2-3-2-7-5-3-4-1-18-1h-36l-9 3-4 7v7l4 7 7 4 4 1 63 2 19 2 10 3 9 8 5 8 3 10 1 14-2 18-6 12-7 7-10 4-21 4-9 1h-63l-22-5-8-4-9-7-6-10-2-6-1-14 1-2h29l16 1 4 10 8 3 7 1h35l13-2 6-4 1-3v-8l-3-6-7-3-66-1-21-3-12-4-7-6-6-10-2-5-1-7v-22l2-11 4-9 7-8 11-5 22-4z" fill="#020202"/>
<path transform="translate(68,373)" d="m0 0h77l19 3 13 5 9 7 6 9 4 10 3 17v3h-48l-2-7-5-5-9-4-10-1h-42l-12 3-6 5-3 7-1 5v41l3 10 6 5 13 4h48l13-4 6-8 2-10h48l-2 18-3 12-6 11-10 9-13 5-14 3-9 1h-77l-20-4-12-5-10-9-6-10-4-16-1-9v-39l3-24 4-13 7-11 10-7 13-4z" fill="#010101"/>
<path transform="translate(271,375)" d="m0 0h66l3 5 16 37 15 35 13 30 13 31 4 8v2l-2 1h-45l-3-5-6-17-3-3h-76l-3 1-4 12-5 11-2 1h-45v-4l7-16 5-12 18-41 11-26 11-25 10-24zm31 30-5 6-8 19-9 24-4 11v3h56l-1-5-8-20-9-24-6-12-2-2z" fill="#020202"/>
<path transform="translate(604,374)" d="m0 0h44l1 1v150l-2 2h-43l-1-2v-150z" fill="#030303"/>
<path transform="translate(875,502)" d="m0 0 7 2 5 6 1 5-3 7-7 5h-6l-7-6-2-5 1-6 5-6zm0 2-6 4-4 5 1 4 6 7 4 1 8-6 1-7-3-5-4-3z" fill="#555"/>
<path transform="translate(876,507)" d="m0 0h2l1 2v9l-3 1-5-5 4-6z" fill="#333"/>
<path transform="translate(884,509)" d="m0 0 3 1 1 5-3 7-6 4-2-1 5-5 2-4z" fill="#2E2E2E"/>
<path transform="translate(875,502)" d="m0 0 7 2 4 5-4-1-4-3-5 1-3 1 1-4z" fill="#828282"/>
</svg>
