<?xml version="1.0" encoding="UTF-8"?>
<svg version="1.1" viewBox="0 0 2000 2000" width="1280" height="1280" xmlns="http://www.w3.org/2000/svg">
<path transform="translate(971,602)" d="m0 0h37l1 1v13l-2 5-17-1-2 1v10h20l7-8 3-19h12l14 2 16 4 2 1-1 8-3 9-4 1-17-3-1 2v6l6 2 9 2 10 3 2-1 8-23 4-2 20 7 17 8 3 2-2 6-6 10-4 1-15-7-3 1-1 5 4 4 16 8 4 1 11-17 3-6 12 6 17 12 8 7 1 3-10 12-7-1-9-7-5-1-2 3 1 4 12 11 7 6 4-1 7-8h2l2-4 6-6 4 2 7 7 7 8 11 14 3 6-11 8-1 3 5 2 3 2h5l4-3 4 1 9 16 8 16 5 11 5 14 6 15 3 14 2 13-3 3-2 6-7 2h-10l-2-9-10-3 2 23v7l28 1 1 1v16l-2 17-3 15-1 1-10-1-8-3 1-13 1-7-1-3h-7l-5 26-1 7 8 3 17 4 2 1-3 11-9 24-5 10-4 1-13-7 1-7 5-11-1-5-7-1-2 6-10 21 1 4 16 8 6 4-3 8-16 23-8 9h-5l-10-9 1-5 9-12 1-6-1-1h-6l-10 13-9 10 2 4 9 8v2l3 1 4 4v5l-10 9-8 7-14 11-3 2-4-1-7-11v-5l13-9 2-5-2-4-5 1-18 13-3 2 1 5 10 17 1 5-17 10-21 10-3-1-6-14 1-4 11-5 6-3-1-5-2-2-6 1-13 6-6 2 1 10 5 15-1 5-17 5-20 4-4-1-3-13 1-5 19-4-1-9-8 1-8 2-13 1 2 26-1 4-1 1-22 1h-15l-5-3v-14l3-3 18-1v-8l-25-1-2 6-3 21-1 1-10-1-19-3-12-3-1-1v-7l3-10 1-1 11 1 6 2h4l1-7-6-3-18-5h-4l-6 19-2 7-2 1-16-6-10-4-13-7-1-1 1-7 5-9 5-1 14 7h3l2-5v-3l-19-9-3-2-4 1-10 18-2 4-6-2-12-8-12-9-8-7 1-5 4-5 4-4 1-2 4 1 8 7 5 3 4 1 1-7-5-5-10-8-4-4-5 1-7 8h-2l-2 4-5 4-4-1-16-17-8-10-4-7v-3l13-8 4 1 9 12v2h6l2-2-1-5-7-11-6-8-2-4-5 1-17 10-5 1-6-9-11-23-3-8 1-4 15-5 3 3 8 16 2 1 5-3-1-6-9-22-1-2-9 1-14 4-5-1-3-7-5-23-2-14v-5l4-2 13-1 3 2 3 19 1 3h8l-3-25-1-18h-28l-1-1v-16l2-15-3-4 1-5 1-7 2-11 4-10 8-14 6-15 6-12h4l10 5 9-5h2l-4-4-11-6-2-2 1-5 10-16 9-12 7-8 4 1 11 10-1 4-8 9-2 6 7-4 10-7 8-6-1-4-7-8-11-11 2-4 15-14 14-11 7-4 7 9 3 5v4l-14 10-2 2 1 4 1 3 5-1 11-9 10-7 1-3-13-21 1-4 16-9 19-9h6l5 14-1 4-12 5-5 3 2 6 4 1 23-10-2-9-4-14v-5l8-3 26-7 6-1 3 9 1 7-2 4-17 4 2 8 10-1 18-3-3-23v-6zm20 4-19 1-1 1 1 28-23 4-7 2h-5l-4-11v-6l17-5 1-5-2-4h-8l-19 5-3 2 1 8 5 16v5l-14 5-8 5 1 4 1 1 7-1 24-8 17-4 11-2 16-6h8l8 2h6l4-5v-2l-22-1-1-2v-15l20-1 2-3-1-7-3-1zm33 2-1 1-3 19v7l4 3h4l3-13v-4l12 1 10 2 3-4-1-6-9-3zm53 14-3 5-6 16-1 5-12-3-5-2h-7l2 4 2 2 12 1 10 4 8 5 10 8 13 8 15 4 8 5 7 8 10 8 10 7 4 2 5-1 9-9v-2l5 3 12 15 5-2 2-5-8-11-9-10-4-5-5 1-14 14v2l-7-1-8-8-12-9-5-2 1-7 7-10 6 1 10 8h5l3-3-2-5-9-8-14-9-4 1-8 13-5 8-6-2-22-11-5-3 1-6 4-9 5-1 14 7 4-1 2-6-5-5-21-9zm-181 4-23 11-5 3 1 5 8 13 4 7v2l-9 6-14 10-9 7-5-4-6-8 2-5 12-9 2-4-3-5-6 1-16 13-8 7 1 5 16 16 2 3h6l11-4 11-9 12-8 6-7 5-9-1-5-6-11v-3l10-5 7-3 1-4-3-6zm117 10-5 8-9 6-2 3 1 7 4 2 12 2 8 3 6 5h4l8-16 2-5-5-4-18-7-4-2v-2zm-37 11-12 5-10 6-15 11 3 3 10 3 6 5 7 11 12 4 11 12 4 2h5l4-5 4-13 1-12-2-9-10-7-1-1-1-14-1-1zm73 8-8 7-4 10-2 18v9l5-3 11-8 10-3h18l9-2 6-3-1-3-11-7-15-12-8-3zm-107 1-20 6-7 3 1 3 2 1h7l9-3 12-7 1-3zm-46 8-5 7-2 11 1 4-1 2-12 6-1 4 2 2h6l6-4 3-1h8l8 3 8 6 6 9 5 13 15 9 8 5h5l7-6 11-3 10 2 5 4 2 5 1 9 4 5 8 7 8 5 4-1-5-4-7-6-7-14-1-9v-18l-4-1-8-3-6-9-4 1-5 4-4 2-9-1-16-11-5-4-5-10-8-5-15-7-8-7zm116 4-1 1v18l-3 12-6 14 1 5 5 2h8l5-5 4-5 3-7 2-14-1-9-8-8-7-4zm-74 9-2 1v7l6 7 16 11 8 1 1-4-4-3h-2l-2-4-6-11-5-3zm161 6-19 7h-21l-8 3-10 8-8 7-2 4 6-1 6-2h32l8-3 2-2 1-7 16-4 16-1 4-1-2-4-4-3-3-1zm9 13-16 4 1 5 6 3 5 1h36v-4l-5-4-8-4-4-1zm-304 1-5 4-9 12-7 11 1 5 9 6 4-2 3-5-1-8 6-9 5-8-1-4-2-2zm90 3-5 3-2 5 2 10-4 11-2 5 5-2 9-3 23-4 1-3-6-12-9-8-4-2zm-40 3-12 3-12 5-12 7-1 2 9-3 15-4 10-1h17l9 2 5 1-1-6-3-3-10-3zm315 1-5 5 1 3 12 5h2l-2-5-6-8zm-87 7-6 3h-10l-6-2h-12l-14 5-11 5-13 2 2 4 8 2h30l10 3 7-1 19-6 17-1 9 2v-2l-10-3-11-7-3-1v-2zm13 2 3 3 13 5 20 3 24 2 21 6 19 9 13 10 12 12 5 3-3-9-7-9-12-12-8-6-11-7-14-6-13-3h-56zm-250 4-16 4-16 8-10 7-1 3 1 1 26 1h28l12-4 9-5 5-8-1-4-13-3zm156 8-2 4 1 9 3 10 6 8 8 5h16l10-1h14l9 2 8 3 3-1-4-10-10-13-5-4-8-2-35-1-8-4-3-1-2-4zm86 5-10 2-3 3 5 6 8 7 7 6 13 6 5 1h26l13 2h16l5-3-1-5-8-9-9-7-10-4-30-3-16-2zm-175 1-17 3-6 3-2 3 3 3 20 7 5-1 16-11v-4l-7-3zm243 0v3l8 3 7 2 13 9 12 14 9 14 9 13 11 12 11 10 4 3h2l-2-14-6-16-6-9-9-10-10-9-14-11-16-9-12-4zm-181 5-9 3-6 5-3 3-5-2-9-3-10 2-8 5-6 5 4 5 12 5 9 2h7l6-3 16-16 4-2 7-2-1-4-6-3zm95 5 6 9 4 7 5 17 4 14 4 3 5 1h9l4-3h8l8 6 11 3 3 1 2 4 5 5 2 1h7l1-2-2-9v-10l5-10-1-5-6-5-11-4h-9l-7 2h-13l-18-6-10-7-13-12zm98 2 3 5 8 8-1 4-3 3-1 3 8 6 6 7 10 18 10 14 5 6 8 3 8 1h9l-1-4-7-7-11-9-8-10-18-27-9-11-8-7-5-3zm-294-2-13 5h-25l-24-2h-8l-13 4-16 11-11 10-7 10-6 12-1 7 7-6 7-8 12-10 18-11 11-5 5-1h19l8 2h6l19-10 13-2 3-5zm8 6-4 1-9 3-14 7-6 5-7 11-4 8-1 6 12 4h9l14-7 10-8 15-8 6-1h8l10 2 16 7 10 5 4 1 13-1 10-4 7-8 5-10 2-5-1-5-4-1-8 4-7 7v2l-4 2-7 6-3 1h-12l-13-4-19-9-5-4-17-7zm-111 3-2 2v6l6-3 2-4-1-1zm221 8-9 20-3 5 1 3 6 2 36 4 23 5 13 5 9 6 5 4 6 7h1l-1-13-4-8-5-6-10-6-27-6-18-8-11-4-10-9zm-180 4-13 4-11 6-14 10-10 9-9 11-3 6v2l6-1 8-7 8-9 7-8 10-8 11-7 9-1v3l-10 5-5 6 1 9 7 8 11 6 5 6 2 5v9l-4 10-8 7-10 2-1 4 5 8 7 4 2 1h8l6-5 6-12 1-6v-8l-3-10-7-12-3-6v-8l2-4h6 3l3-12 6-10v-5l-12-2zm228 2-15 3v4l4 3 13 4 21 5 9 5 8 9h3l1-2v-12l-5-10-10-6-9-3zm128 3-4 2v3l5-1 2-3zm-262 5-12 4-10 6-14 10-10 4-6 2 2 4 8 2h8l12-3 11-6 7-5 11-3 18-2 4-1-1-3-16-7zm268 3-8 4-6 7v14l2 5 5-1 14-9 9-4-4-8-6-7zm-386 12-1 2h2zm172 1-42 3-10 2-10 6-5 5-2 4 1 3 9-10 7-4 16 1 11 3h14l10-5 8-6v-2zm14 1-14 12-8 11-15 11-7 8-1 5 35 1 11-1v2l-8 3-11 1-4 2v5l5 4 11 6 3 3v2l-10 5-17 5-10-1-8-4-5-5-5-4-6-2 1-6 2-3h-4l-9 6v25l5 24 8 22 8 15 8 11 8 8 14 11 12 11 8 7 7 2h11l17-2 8-4 10-9 11-10 11-9 7-7 10-13 9-16 5-14 4-19 2-18 1-26-2-10-8-13-8-9-11-7-12-5-17-4-38-4zm-141 4 1 4 4 3h5l-1-4-6-3zm282-1-4 3h-23l-1 7 5 3 10 3 5-2 5-4 1-5 4 1 5 6 4 2 1-2-4-6-7-6zm-324 4-8 4-3 5v10l3 5 2 1h7l5-4 1-5-5-1-5 1v-5l2-2 7-2-1-5zm35 0-2 1 1 5 10 16 4 11v11l-4 13-7 11 1 6 7 11 12 12 2 1h9l3-2-2-4-8-4-4-5-2-7 4-4 6-1 3 3 6 11 3 3 5-1 5-6 5-12 1-5-3-3-6-3-2-9 2-8 4-5 6-5v-20l-9 1-4 1h-8l-11-3h-13l-5-2-7-6zm361 1-10 5-14 10-6 2-10 1 1 6 6 9 2 2 4 1h8l5-5 5-15 2-2 5 1 8 5 4-2 2-4-1-7-4-6zm-276 6-6 2-7 6-6 11 1 5 5 2 5-5 4-5 14-11v-4zm-141 2-2 3-1 8 2 3h4v-13zm363-3-2 17-3 3-6-12-4-4-4 1-8 4h-10l-10-2v10l3 25 4-1 6-4 8 1 8 3 4 3 4-1 5-7 4-2h9l9 4 6 3h6l3-3-2-2-10-4-4-4-6-12-3-11-4-5zm-329 5-2 12-3 3v2l-9 3-4 1 2 5 5 4 5 2h8l6-4 4-6 1-3v-11l-7-6zm129 0-8 4-6 7-3 9-1 13 2 1 5-5 10-14 6-5 10-7 2-3zm-178 8-3 1-3 7-1 7v17l3 1h25l1 20 3 22v8l-12 3h-5l-3-11-2-13-2-2-7 1v10l4 23 4 9 8-1 15-4h5l3 10 10 24 1 4-13 7h-4l-8-18-3-2-6 1-1 3 5 13 8 16 4 4 6-2 17-10 3 1 8 12 12 16 1 4-7 8-3 2-5-1-8-10-3-4h-6l-1 7 7 10 11 12 3 3 5-1 14-15 1-2 4 1 10 9 14 11 3 2-1 4-7 10v2l-7-2-11-8-4-1-2 2v6l9 8 10 7 6 4 4-2 8-14 5-7 4-2-5-11-8-7-9-7-13-12-11-12-14-19-9-15-11-23-8-24-6-31-1-11-1-26-5-9h-2l-2 6h-12l-5-2v-10l1-6zm447 0-3 4 2 37-2 26-5 24-9 25-9 19-12 19-9 13-14 15-10 10-11 9-11 8-7 13v2h-2l-4 6 2 5 5 8 1 4-6 1-12 6-1 1v6l2 2 7-1 16-8 8-5-1-4-8-14-4-8 7-4 14-10 9-8 5 1 8 9-1 5-14 11v6l3 3 5-1 15-13 9-8v-5l-9-8-1-2h-2l-2-4-3-3 2-4 7-8 14-18 1-2 6 1 9 5 1 4-12 16 1 5 2 2h5l8-10 10-15 1-7-19-11-2-2 1-5 10-21 4-9 1-2 9 3 8 3-2 6-5 12 1 4 3 2 4-1 5-8 8-21v-6l-21-6-4-1-1-3 6-29 1-10 12 1 6 1-1 13-1 8 1 2 7 1 3-5 3-29-1-5-27-2-1-7-2-28-3-6zm-20 1-3 9-10 19-3 2-7 2 1 5v15l-4 13-5 13-1 9 4 8-10-1-15 1-2 16-5 17 1 3v15l-8 16-2 5-1 7-1 26 2 1 9-7 16-15 12-13 13-17 12-21 10-23 6-21 4-21 2-19v-16l-2-16-3-6-7-6zm-417 8 1 5h5l1-3-3-2zm144 0-5 6-4 9-1 9 2 1 7-4 2-2 1-19zm-24 10-7 6-1 8 4 3 5 1 7-4 2-7v-6zm49 6-10 3-5 3-2 4v5l5-2 9-6 12-4h9l2-2-6-1zm199 0-5 5-4 14v6l9 6 4 6 2 10 2 14h3l6-18 5-13 2-9-1-8-5-7-11-6zm-34 4-5 4-2 5 2 11-1 15 3 2 6-12h5l4 3 5 1 3-13 1-5-3-5-10-6zm-309 2 1 23 2 17 6 25 8 22 8 16 8 14 14 19 11 12 9 9 14 11 4 1 1-1 3-23v-10l-10-10-3-6v-11l2-3-1-5-6-14-7-7-7-11-1-7v-9l-7-6-10-13-6-11-14-2-8-5-4-5-5-10zm154 1-10 3-5 3 3 1 6-2 10-1 1-3zm-3 9-10 5-1 4 5 4 3 1h9l8-3 2-2v-5l-3-3-3-1zm184 15-4 7-9-1-6-2-2 2 1 6 8 9 8 7 6 7 10 1-1-7-2-10-2-12-4-6zm-239 2-4 7-4 5-9 5-4 6-3 2-9 2-2 4v7l3 1 5-5 9-8 13-10 6-7 2-3-1-5zm-31 1-1 4h2zm233 8-4 17v9l6 9 9 11 6 8 2 3 2 9 4-1 5-6 4-9-2-8-6-9-5-6h-2l-1-3-7-6-6-10-4-8zm-196 1-7 8-13 11-10 8-5 6 1 7 4 2 5-9 4-5 11-7 10-5 5-4 1-4-3-8zm212 8 1 7 9 10 9 11 2-1-3-10-7-9-7-7zm-206 10-21 11-8 8-2 7 1 11 5 13h3l8-11 7-8 10-8 3-4-1-9-3-10zm183 13-4 8 1 9 2 3 4-1 4-8-2-6zm11 14-4 5-8 16-8 11-9 11-11 12v2l-4 2-5 6-10 8 1 3 9 1 12-11 5-5 1 3-9 10-5 4 1 4 5 1 11-9 16-16-2-8 8-10 11-13-1-4-3-1 2-5 4-6-1-6-4-5zm-192 3-8 7-6 7-5 10 1 4h3l4-8 14-14v-6zm9-1-1 3 2 10 6 16 8 13 11 14 11 11h2l1 3 9 5h24l8 1 7 1 6 1 9-3 13-4 11-8 25-25 10-13 7-11-1-6-3-4-4 2-9 13-12 13-10 9-3 2v2l-4 2-12 12-12 5-19 2h-9l-10-2-11-9-14-13-11-8-5-5-7-8-12-21zm-6 13-5 6-1 5 4 8 5 15h-3l-5-10-3-8-2-2-1 1v7l6 14 9 14 14 15 9 8 3-1-9-11-1-4 9 6 8 7h6l5-3-2-4-8-7-10-11-9-11-6-9-8-15-3-10zm212 8-7 7-4 8-6 18-2 25-2 8-6 10-4 2h-8l-11-4-18-10-13-5-9-2h-9v4l14 6 17 12 11 5 16 3 13-1-4 6-13 1-9-2-16-8-21-14-4-1 1 4 11 8 10 8 11 5 14 3h11l11-4 8-7 5-8 3-10 1-8 1-23 3-9 7-14 1-12zm-245 9-1 4 5 7 12 8 3 3h3l-2-5-9-9-8-7zm221 19-9 11-10 11-11 9-3 4 9 6 7 3 8 1 5-4 3-7 2-18 1-16zm-194 12-1 18v13l3 7 3 2h7l13-5 6-4-5-6-6-5-7-8-9-10zm-10-5-2 2-5 24v10l4 10 7 9 10 6 6 2h13l11-3 19-10 15-8 4-2v-3l-7 1-12 6-17 9-9 3h-10l3-3 14-4 16-8 21-10 17-1-1-5-9-3-12 2-13 5-13 7-19 11-10 3-8-1-5-4-3-9v-35zm105 25-2 4 1 5 7 9h2v2l8 4h8l6-3-2-4-10-6-10-9-4-2zm17 2 4 2-1-2zm-28 9-5 2-2 3 4 6 4 3 8 1 5-2-1-4-7-8zm-13 9-16 8-12 7v2l15 4 25 3h30l33-5 2-2-13-11-5-3-3 1v2l-6 2h-13l-4-1-6 4h-12l-6-3-4-5-2-3zm-40 20-5 2-1 1h-11l-3 4-4 11v2l-18-8h-5l-1 2v6l16 8 11 5 4-1 9-25 6 1 30 7v19l-17-3h-6l-2 6 2 4 25 5 5-1 3-19v-9l35 1 2 1 1 5v13h-20l-2 2v6l2 3h20l9-1 2-2-1-27 26-5 9-2 3 7 2 11-7 2-10 2-1 1v8l1 1 10-1 20-5 1-5-6-18-1-8 9-3 1-2h-20l-23 5-8 1-21 1h-17l-17-1-27-5z" fill="#222"/>
<path transform="translate(701,1226)" d="m0 0h81l22 3 17 5 11 6 8 7 7 14 2 15-3 15-6 10-6 7-10 7-16 8h-2l4 8 16 25 13 21 16 27v2h-33l-6-7-12-19-16-26-13-21-4-5-36-1v58l-1 20-2 1h-31l-1-1-1-82v-37l1-59zm34 9v85l6 1 28-2 16-4 10-6 9-9 5-8 3-9v-17l-4-11-9-10-9-6-12-4z" fill="#222"/>
<path transform="translate(991,1223)" d="m0 0h20l17 3 15 6 16 9-2 4-12 10-3 1-15-12-12-6-8-2h-19l-13 4-10 6-6 8-2 4v12l6 12 7 6 15 8 23 6 24 6 13 5 13 7 9 9 5 10 2 7v15l-4 13-7 12-8 8-14 8-13 5-14 3-7 1h-24l-19-3-11-3-15-6-11-7-3-3 2-4 14-10 4-2 6 8 12 9 11 5 16 3h19l12-3 11-7 6-8 2-5v-14l-5-12-7-7-12-7-20-6-18-4-17-5-14-7-10-9-6-10-2-6v-21l4-12 7-10 9-8 15-8 13-4z" fill="#222"/>
<path transform="translate(1210,1226)" d="m0 0h29l5 5 15 35 22 51 23 54 13 32v2l-2 1h-29l-8-15-15-38-5-10h-88l-7 15-10 22-8 16-5 9-1 1h-13l1-5 15-33 18-38 13-29 14-30 17-36 4-8zm6 18-7 14-13 28-16 34-5 11v2h79l-1-5-10-25-14-34-10-24z" fill="#222"/>
<path transform="translate(1450,1223)" d="m0 0h25l19 3 15 5 9 5 10 9 5 8 4 16v2l-6 1h-23l-2-3-3-13-6-11-3-3v-2l-4-2-8-5-14-4h-16l-13 4-10 6-9 10-7 16-5 22-2 26v15l2 21 4 15 5 12 6 10 7 7 14 7 12 3 15 1 12-2 14-7 4-4h2l2-4 6-11 2-8h22l1 5-5 12-5 7-9 7-10 5-14 4-19 3h-26l-18-3-16-5-13-7-12-11-7-9-7-14-5-19-2-19v-16l2-19 4-15 8-17 9-11 11-9 14-7 14-4z" fill="#222"/>
<path transform="translate(1617,1226)" d="m0 0h118l1 9-2 1-80 1-2 2v71l20-1h47v10l-67 1-1 76h84l1 5-2 5-46 1h-23l-47-1-1-1-1-22v-156z" fill="#222"/>
<path transform="translate(265,1226)" d="m0 0h34l5 12 18 55 14 43 13 41 4 8 2-1 7-20 15-43 20-55 13-37 3-3h13l1 4-16 43-18 48-16 44-11 28-5 11-2 1h-29l-4-6-19-52-11-30-19-54-11-31z" fill="#222"/>
<path transform="translate(540,1226)" d="m0 0h48l33 1 1 2v6l-15 1h-69v74l48-1h19l1 1v8l-3 1h-65v77h83l2 1-1 8-1 1h-110l-7-2-1-112v-33l1-32z" fill="#222"/>
<path transform="translate(983,588)" d="m0 0h24l21 2 23 4 23 6 22 8 25 12 13 8 16 11 14 11 15 14 9 9v2h2l11 14 10 13 11 18 10 19 10 25 7 23 5 25 3 29v26l-3 28-6 27-8 24-9 20-10 19-12 19-10 13-9 10-11 12-7 7-8 7-13 11-21 14-21 12-18 8-16 6-26 7-22 4-14 1h-43l-15-1-25-5-21-6-17-6-29-14-19-12-16-12-13-11-22-22-11-14-10-14-10-17-7-12-10-24-7-21-6-26-3-24-1-31 2-26 5-25 6-22 8-21 9-19 10-17 10-15 11-14 11-12 7-8 15-14 14-11 21-14 18-10 17-8 28-10 25-6 21-3zm-7 5-28 3-25 6-24 8-20 9-23 13-20 14-14 12-12 11-10 10-9 11-10 12-12 19-10 18-11 26-6 19-7 34-2 29v13l2 25 5 28 7 23 10 25 11 22 7 11 8 11 12 16 12 13 13 13 14 11 14 10 12 8 11 6 21 10 31 11 20 5 31 4h35l33-4 26-7 25-9 21-10 22-13 16-12 11-9 15-14 14-15 11-14 11-17 9-16 9-19 11-31 6-27 3-24v-34l-5-37-7-26-8-22-10-21-8-14-9-14-11-14-12-14-17-17-14-11-16-12-17-10-29-14-22-8-21-5-18-3-18-2z" fill="#222"/>
<path transform="translate(1031,840)" d="m0 0h7l10 4 10 8 7-1 8-6h2l-2 4-6 6-7 2-2 6-10 6-5 2h-19l-11-4-1-4 3-12h-2l1-4 11-6zm2 12-10 3-2 2 1 6 5 5h15l8-6-2-5-5-3z" fill="#222"/>
<path transform="translate(978,848)" d="m0 0 4 2 1 5v38l-3 10v8l5 5 8 2v2l-10 2-2 1h-20l-3-3v-1h21v-2l-4-5v-11l1-7 1-45z" fill="#222"/>
<path transform="translate(1030,829)" d="m0 0h11l21 7 13 1-3 3-7 3-14-5-13-3-10 1-7 4-9 8-4-1 1-3 5-5 9-7z" fill="#222"/>
<path transform="translate(1021,944)" d="m0 0 5 1v4l-6 2-4 1h-28l-39-1 1-3 2-1h22l1-1h18l4-1 9 2h13z" fill="#222"/>
<path transform="translate(1012,955)" d="m0 0 2 1-1 3-8 4h-39l-5-5v-2l7 1h9l10-1 5 1h9z" fill="#222"/>
<path transform="translate(990,928)" d="m0 0 4 1 5 5 10 4v3l-7-1h-25l-4 2-5-1 1-3 15-5 4-1zm-3 5-1 2h6v-2z" fill="#222"/>
<path transform="translate(1014,912)" d="m0 0h2l-1 7-7 4h-11l-1-3 13-3z" fill="#222"/>
<path transform="translate(1e3 860)" d="m0 0 4 2 4 11v5h-2l-5-9z" fill="#222"/>
</svg>
